<svg width="700" height="300" xmlns="http://www.w3.org/2000/svg"><text x="350" y="300" text-anchor="middle" font-size="14"># of Nodes</text><text x="-150" y="15" transform="rotate(-90)" font-size="14" text-anchor="middle"># of Edges</text><line x1="40" y1="260" x2="680" y2="260" stroke="black" /><line x1="53.625" y1="260" x2="53.625" y2="265" stroke="black" /><text x="53.625" y="280" text-anchor="middle" font-size="12">0</text><line x1="85.875" y1="260" x2="85.875" y2="265" stroke="black" /><text x="85.875" y="280" text-anchor="middle" font-size="12">1</text><line x1="118.125" y1="260" x2="118.125" y2="265" stroke="black" /><text x="118.125" y="280" text-anchor="middle" font-size="12">2</text><line x1="150.375" y1="260" x2="150.375" y2="265" stroke="black" /><text x="150.375" y="280" text-anchor="middle" font-size="12">3</text><line x1="182.625" y1="260" x2="182.625" y2="265" stroke="black" /><text x="182.625" y="280" text-anchor="middle" font-size="12">4</text><line x1="214.875" y1="260" x2="214.875" y2="265" stroke="black" /><text x="214.875" y="280" text-anchor="middle" font-size="12">5</text><line x1="247.125" y1="260" x2="247.125" y2="265" stroke="black" /><text x="247.125" y="280" text-anchor="middle" font-size="12">6</text><line x1="279.375" y1="260" x2="279.375" y2="265" stroke="black" /><text x="279.375" y="280" text-anchor="middle" font-size="12">7</text><line x1="311.625" y1="260" x2="311.625" y2="265" stroke="black" /><text x="311.625" y="280" text-anchor="middle" font-size="12">8</text><line x1="343.875" y1="260" x2="343.875" y2="265" stroke="black" /><text x="343.875" y="280" text-anchor="middle" font-size="12">9</text><line x1="376.125" y1="260" x2="376.125" y2="265" stroke="black" /><text x="376.125" y="280" text-anchor="middle" font-size="12">10</text><line x1="408.375" y1="260" x2="408.375" y2="265" stroke="black" /><text x="408.375" y="280" text-anchor="middle" font-size="12">11</text><line x1="440.625" y1="260" x2="440.625" y2="265" stroke="black" /><text x="440.625" y="280" text-anchor="middle" font-size="12">12</text><line x1="472.875" y1="260" x2="472.875" y2="265" stroke="black" /><text x="472.875" y="280" text-anchor="middle" font-size="12">13</text><line x1="505.125" y1="260" x2="505.125" y2="265" stroke="black" /><text x="505.125" y="280" text-anchor="middle" font-size="12">14</text><line x1="537.375" y1="260" x2="537.375" y2="265" stroke="black" /><text x="537.375" y="280" text-anchor="middle" font-size="12">15</text><line x1="569.625" y1="260" x2="569.625" y2="265" stroke="black" /><text x="569.625" y="280" text-anchor="middle" font-size="12">16</text><line x1="601.875" y1="260" x2="601.875" y2="265" stroke="black" /><text x="601.875" y="280" text-anchor="middle" font-size="12">17</text><line x1="634.125" y1="260" x2="634.125" y2="265" stroke="black" /><text x="634.125" y="280" text-anchor="middle" font-size="12">18</text><line x1="666.375" y1="260" x2="666.375" y2="265" stroke="black" /><text x="666.375" y="280" text-anchor="middle" font-size="12">19</text><line x1="40" y1="20" x2="40" y2="260" stroke="black" /><line x1="35" y1="260" x2="40" y2="260" stroke="black" /><text x="30" y="260" text-anchor="end" font-size="12">0</text><line x1="35" y1="212" x2="40" y2="212" stroke="black" /><text x="30" y="212" text-anchor="end" font-size="12">7</text><line x1="35" y1="164" x2="40" y2="164" stroke="black" /><text x="30" y="164" text-anchor="end" font-size="12">15</text><line x1="35" y1="116" x2="40" y2="116" stroke="black" /><text x="30" y="116" text-anchor="end" font-size="12">22</text><line x1="35" y1="68" x2="40" y2="68" stroke="black" /><text x="30" y="68" text-anchor="end" font-size="12">30</text><line x1="35" y1="20" x2="40" y2="20" stroke="black" /><text x="30" y="20" text-anchor="end" font-size="12">37</text><rect x="40" y="65.40540540540539" width="27.25" height="194.5945945945946" fill="pink" /><rect x="72.25" y="175.67567567567568" width="27.25" height="84.32432432432432" fill="pink" /><rect x="104.5" y="78.37837837837836" width="27.25" height="181.62162162162164" fill="pink" /><rect x="136.75" y="84.86486486486487" width="27.25" height="175.13513513513513" fill="pink" /><rect x="169" y="20" width="27.25" height="240" fill="pink" /><rect x="201.25" y="162.7027027027027" width="27.25" height="97.2972972972973" fill="pink" /><rect x="233.5" y="136.75675675675677" width="27.25" height="123.24324324324324" fill="pink" /><rect x="265.75" y="117.29729729729729" width="27.25" height="142.7027027027027" fill="pink" /><rect x="298" y="221.0810810810811" width="27.25" height="38.91891891891892" fill="pink" /><rect x="330.25" y="195.13513513513513" width="27.25" height="64.86486486486487" fill="pink" /><rect x="362.5" y="188.64864864864865" width="27.25" height="71.35135135135135" fill="pink" /><rect x="394.75" y="214.59459459459458" width="27.25" height="45.40540540540541" fill="pink" /><rect x="427" y="214.59459459459458" width="27.25" height="45.40540540540541" fill="pink" /><rect x="459.25" y="240.54054054054055" width="27.25" height="19.45945945945946" fill="pink" /><rect x="491.5" y="247.02702702702703" width="27.25" height="12.972972972972974" fill="pink" /><rect x="523.75" y="221.0810810810811" width="27.25" height="38.91891891891892" fill="pink" /><rect x="556" y="234.05405405405406" width="27.25" height="25.945945945945947" fill="pink" /><rect x="588.25" y="247.02702702702703" width="27.25" height="12.972972972972974" fill="pink" /><rect x="620.5" y="260" width="27.25" height="0" fill="pink" /><rect x="652.75" y="253.51351351351352" width="27.25" height="6.486486486486487" fill="pink" /></svg>